/* XPM */
static char *_31e8f43e25d4e0395b30635a1351130WgrXKLIdaNMGb9bd[] = {
/* columns rows colors chars-per-pixel */
"64 64 247 2 ",
"   c #32282B",
".  c #4E3338",
"X  c #72433D",
"o  c #534B50",
"O  c #6B656F",
"+  c #6E5253",
"@  c #8F3C3F",
"#  c #913F42",
"$  c #9D3F48",
"%  c #8F3E42",
"&  c #AF374A",
"*  c #C9294D",
"=  c #DC2852",
"-  c #C23851",
";  c #D63256",
":  c #E62855",
">  c #EB2956",
",  c #EC2B59",
"<  c #E52654",
"1  c #E2345C",
"2  c #ED335D",
"3  c #EC3256",
"4  c #ED3B63",
"5  c #E73A63",
"6  c #934245",
"7  c #994349",
"8  c #924C52",
"9  c #915252",
"0  c #9A5E65",
"q  c #927177",
"w  c #B87573",
"e  c #CB4959",
"r  c #EC774E",
"t  c #D6587A",
"y  c #D5486C",
"u  c #E84269",
"i  c #E8547A",
"p  c #E94E73",
"a  c #DF5B5D",
"s  c #ED973C",
"d  c #EFB955",
"f  c #DC995E",
"g  c #EECC78",
"h  c #F1D06F",
"j  c #F0C452",
"k  c #2356AF",
"l  c #2958AB",
"z  c #396DC9",
"x  c #2C6AD6",
"c  c #3D79DF",
"v  c #2861C6",
"b  c #2F72E8",
"n  c #3475E4",
"m  c #3176EC",
"M  c #357BED",
"N  c #3C7CE9",
"B  c #2E6FE2",
"V  c #275FC0",
"C  c #4C7ED7",
"Z  c #457DE0",
"A  c #5D6F9D",
"S  c #9A7082",
"D  c #A37F8A",
"F  c #E85B80",
"G  c #D96B88",
"H  c #DB7998",
"J  c #C9728D",
"K  c #E76486",
"L  c #E67997",
"P  c #E47091",
"I  c #D75882",
"U  c #7B8BBA",
"Y  c #3A84ED",
"T  c #3D89EE",
"R  c #3782EE",
"E  c #3D88F0",
"W  c #5987DA",
"Q  c #5083D6",
"!  c #6692DB",
"~  c #759BDB",
"^  c #6D8CCD",
"/  c #4485EC",
"(  c #438CEE",
")  c #4986E6",
"_  c #558CE5",
"`  c #5493EC",
"'  c #5B94EA",
"]  c #418EF0",
"[  c #4F8FF0",
"{  c #5898F1",
"}  c #4A92EF",
"|  c #659AE9",
" . c #659EF1",
".. c #7CACEE",
"X. c #77A5E8",
"o. c #6BA4F1",
"O. c #65A1F1",
"+. c #76ABF2",
"@. c #7EB1F2",
"#. c #6CA2EF",
"$. c #938A91",
"%. c #AD8D8F",
"&. c #8D94B8",
"*. c #B499AB",
"=. c #B3A9B6",
"-. c #9CA5BD",
";. c #CB9B83",
":. c #CC9094",
">. c #E7829D",
",. c #DEA98A",
"<. c #D7A488",
"1. c #D0A694",
"2. c #E3AD8D",
"3. c #EBA48C",
"4. c #ECB594",
"5. c #EFB896",
"6. c #E8B598",
"7. c #F1BA97",
"8. c #E9B18F",
"9. c #DC8AA8",
"0. c #DB98AA",
"q. c #D296AE",
"w. c #EB8BA5",
"e. c #E888A3",
"r. c #E894AC",
"t. c #E89CB3",
"y. c #F196AC",
"u. c #C7AAA8",
"i. c #D7B4A5",
"p. c #C7ABB6",
"a. c #DAAABD",
"s. c #C8B7B8",
"d. c #D5BAB4",
"f. c #CBB2AE",
"g. c #E7A6BA",
"h. c #E8B4AA",
"j. c #EFC987",
"k. c #F1D383",
"l. c #ECC4AE",
"z. c #DBC3BA",
"x. c #8896C6",
"c. c #949DC7",
"v. c #90A5D0",
"b. c #B0B1C5",
"n. c #86ACE7",
"m. c #8AB4ED",
"M. c #91B6EB",
"N. c #94BAEE",
"B. c #9BBCEB",
"V. c #82B3F2",
"C. c #8BB6F1",
"Z. c #8DBAF3",
"A. c #86B9F7",
"S. c #94BEF3",
"D. c #98BEF0",
"F. c #A1BEE9",
"G. c #DAA9C2",
"H. c #DBB7CA",
"J. c #CFB7CE",
"K. c #E4ADC2",
"L. c #E9ADC1",
"P. c #EBB4C5",
"I. c #E7B8C9",
"U. c #E1BED0",
"Y. c #9CC3F3",
"T. c #95C2F6",
"R. c #9EC0EE",
"E. c #A4C3ED",
"W. c #ABC6EB",
"Q. c #B7CDEB",
"!. c #BBD3ED",
"~. c #A5C9F2",
"^. c #ACCCF1",
"/. c #A1C5F2",
"(. c #B3CEF1",
"). c #AED1F5",
"_. c #BBD5F1",
"`. c #B7D6F6",
"'. c #BAC8DE",
"]. c #C9C6C9",
"[. c #C4CAD7",
"{. c #DBC3D5",
"}. c #D6CBDC",
"|. c #DCDBDD",
" X c #D5D4D8",
".X c #D5CECF",
"XX c #E7C9D5",
"oX c #EAD4DC",
"OX c #E3D6DC",
"+X c #EACFCD",
"@X c #EDE6D8",
"#X c #C6D9ED",
"$X c #CCDCEC",
"%X c #CAD6E7",
"&X c #D4DCE5",
"*X c #DBDEE4",
"=X c #D2DDEA",
"-X c #DBDDEB",
";X c #D8D4E3",
":X c #C4DBF3",
">X c #CADDF3",
",X c #C3DCF6",
"<X c #CDD0E5",
"1X c #ECDAE1",
"2X c #E5DCE4",
"3X c #D5E2ED",
"4X c #DCE3EC",
"5X c #DEE4E9",
"6X c #CEE2F5",
"7X c #CBE2F8",
"8X c #D4E5F4",
"9X c #DAE7F2",
"0X c #DCEAF4",
"qX c #DCEDF9",
"wX c #D6E8F7",
"eX c #E4E3E4",
"rX c #EAE3E5",
"tX c #E3E5EB",
"yX c #EAE6E9",
"uX c #E4E9EE",
"iX c #EEEEEE",
"pX c #EFE8E7",
"aX c #F0EFEF",
"sX c #E3ECF3",
"dX c #EBEEF1",
"fX c #E2EEF9",
"gX c #E1E6F0",
"hX c #F1EEF0",
"jX c #E6F0F6",
"kX c #EDF1F4",
"lX c #ECF3F8",
"zX c #E5F1F9",
"xX c gray94",
"cX c #F1F1F1",
"vX c #F1F1F0",
"bX c gray95",
"nX c #F3F3F3",
"mX c #F3F2F2",
"MX c #F1F2F2",
"NX c #F4F4F4",
"BX c gray96",
"VX c #F5F5F4",
"CX c #F6F6F6",
"ZX c #F3F3F3",
"AX c #F4F6F8",
"SX c #F9F9F9",
"DX c #F8F8F8",
/* pixels */
"SXiXSXiXDXiXBXaXBXkXCXvXmXCXvXCXaXCXaXBXiXDXiXDXiXDXiXDXiXDXaXBXkXVXxXVXZXxXVXxXCXiXDXiXDXiXDXiXDXiXDXiXDXiXBXxXVXkXVXmXmXVXvXDX",
"iXCXiXCXaXBXxXBXxXCXvXVXVXkXmXxXCXvXVXaXBXaXBXxXBXxXBXaXDXaXVXaXVXxXVXxXxXVXxXVXiXCXvXCXiXCXaXCXaXCXaXCXaXVXxXBXvXVXmXmXVXkXVXaX",
"DXiXCXaXCXaXCXkXVXvXVXkXkXmXvXVXkXCXaXCXxXBXxXBXxXBXxXBXaXBXmXmXkXwX6XjXkXZXVXxXVXvXCXaXCXiXCXiXDXaXNXaXVXxXCXxXVXxXmXkXvXmXxXVX",
"iXCXaXCXaXCXvXmXxXmXmXmXVXmXVXvXVXxXVXvXVXxXBXxXBXxXVXxXDXvXkX0X).+.{ ~.kXZXZXVXcXmXkXCXvXVXvXCXaXCXkXNXxXCXxXVXxXVXmXVXVXkXVXxX",
"CXaXDXvXmXcXBXmXVXmXmXkXvXVXmXmXvXVXkXmXvXCXaXVXxXBXxXVXkXZX8XV.! &.&.o.6XZXZXMXCXcXNXcXNXcXCXiXmXkXCXxXVXxXVXkXVXmXmXkXmXVXkXCX",
"kXNXkXNXcXVXkXNXvXVXvXVXVXvXVXkXVXmXCXvXmXkXVXkXVXkXVXkXjX7X+.^ 1.2.u.O.`.9XkXZXcXmXcXNXcXmXcXCXvXVXkXBXkXVXmXmXvXVXvXVXVXxXvXvX",
"mXmXmXmXmXmXmXmXVXkXVXvXkXmXvXVXkXmXmXmXmXmXaXkXqX6X`.Y.T.O.^ 1.8.8.1.| ).#X8XdXCXcXNXmXcXcXCXcXmXmXmXmXVXmXmXmXVXkXVXvXkXmXmXVX",
"mXmXmXmXmXmXmXmXCXvXmXVXvXVXmXmXmXVXmXVXmXkX0X`.+.` T T Y ) *.j.6.j.i.' ).$X!.6XsXcXNXcXNXmXcXcXmXmXmXmXmXvXVXmXVXvXmXVXvXVXmXmX",
"cXNXcXmXmXmXmXNXvXmXmXmXmXkXmXmXcXkXjXsXjX7XV./ Y T T T T ( ! c.i.4.=._ V._.#X$X#XjXxXmXcXCXcXCXkXVXmXmXmXmXmXVXvXVXkXmXVXvXVXmX",
"CXcXNXcXNXcXNXcXVXmXVXvXmXVXkXZX6XD.@.A.T.{ Y Y T Y / _ _ } T T | b.x.N T { Z.!.$X8XkXxXmXcXcXcXCXxXVXkXVXxXVXvXVXmXVXvXvXVXkXVX",
"cXNXcXNXcXmXhXAXxXVXkXVXVXkXCXxXY.Q W R Y Y Y Y Y ' Q.tX5XQ.| T T ] T R M T ] o.).8XsXCXiXCXaXCXaXVXxXBXxXVXxXmXxXVXkXVXVXmXmXvX",
"DXiXCXdXCXcXBXhXVXxXVXvXvXVXxXZX^.W Q Y Y Y Y Y [ %XaXaXaXaX#X` ] T T E Y Y T T { T.wXaXCXcXCXiXDXaXBXxXBXxXCXkXVXxXmXmXxXmXvXCX",
"iXCXiXCXhXNXhXBXkXVXmXVXVXkXCXxX7X/ M T Y Y Y ] E.iXiXiXaXiXiXM.T ] T T T Y Y T T ] S.qXaXCXaXCXaXBXxXBXaXVXxXVXxXVXvXVXVXvXVXxX",
"DXaXCXcXCXhXBXhXCXxXmXvXvXVXxXVX7XW X./ Y Y E X.tXiXiXiXiXiXaXQ.} ] T T T T Y M R T ( T.fXaXCXdXVXxXBXxXDXkXVXxXVXvXVXkXkXVXxXDX",
"iXCXiXCXhXNXdX-XuXkXkXVXVXmXVXxX,XX.<X' Y Y } Q.iXiXiXaXiXiXaX$X} ] T T Y T Y M b m M ( S.0XkXCXxXBXxXBXaXBXkXBXxXVXmXmXVXkXVXaX",
"CXcXCXiXBXdX[.w 0.4XVXvXkXmXkXZX).M.2Xn.M Y | tXiXiXiX X].iXxX!.} ] T T Y Y Y Y n B m Y { C.8XiXZXiXBXxXBXxXkXiXVXkXVXmXvXVXxXVX",
"iXCXiXCXaXzX%.& 4 0.sXNXNXmXCXkX`.B.eX[.) Y W.pXiXiXiXq O kXxXW.] ( M M M N N V.(.M.S.A.+.@./.7XwXqX0XqX0XwXqXqXsXNXiXjXkXcXmXvX",
"CXiXCXiXNX$X0 $ 3 p H.yXmXNXcXkX^.E.eX XO -.eXuXiXiXeXO $.eXiX@.E Y M M M M { fXSXDXAX>X`.qXfXAXlXlXzXzXzXlXDXAXqXzX0X0XfXvXvXDX",
"aXCXiXCXdX[.8 $ 1 2 P {.1XmXCXkX).E.].$.O ].pXiXiXiXrXO   ].$X` M M m m M M C.SXSXSXyXiXSXSXSXSXDXCXBXmXmXmXcXCXqXwXqXkX8XkXmXaX",
"CXcXCXcXlXb.# $ 1 3 u t.I.oXcXmX).E.*.  . $.eXuXiXiXiX$.o [...R m M m M m M (.SXSXSXdXBXSXSXDXCXaXuXyXiXiXeXiXmXBXlXqX0X0XjXkXNX",
"cXNXcXNXzX*.% # 1 2 2 i g.g.XXhX`.R.].o   o .X@XaXaXpXs.%.I.b.x.) m m m b Z ,XCXCXmXrXNXSXSXAXcXaXeXeXiXuXpXkXDXDXNXsXjXjXjXsXvX",
"NXcXNXcXfX%.% $ 1 4 , u >.y.y.1X7XB.|.].O o <.l.l.l.l.j.7.7.7.7.f.W m N ! =.2XdXhXdX2XBXSXAXNXcXiXjXuXaXkXiXiXaXCXkXuXiXiXjXkXVX",
"NXcXNXNXfXS % $ 1 4 , 2 F w.w.P.&Xm.%X.Xi.<.2.4.7.8.5.7.5.,.4.6.4.=.Z c.6.4..XeXyXyXiXAXSXmXdXdXuXuX0XkXmXDXCXiXdXuXiXuXsXaXvXVX",
"cXNXhXNX9Xq % # u 4 , 2 4 L w.y.oXN.b.i.,.,.2.4.8.4.5.8.w X ,.5.4.1.u.4.i.c.~ '.%XtXCXSXAXdXdXdXuXuXuXuXsXaXmXkX4X5X5XiXuXiXvXvX",
"CXcXNXcX3X0 6 6 e s r r a i w.y.P.<Xs.2.,.,.,.8.4.4.f 9 . 8 1.5.3.,.4.u.! m m z ! jXSXAXwXtXiXgXiXuXiXuX0XsX5X5XiXuX*X5XuXiXaXmX",
"cXNXcXNX$X0 6 6 w d d d d t.y.L t.XX.X2.,.,.,.2.2.8.9   S %.6.4.<.6.p.C m m m Z ~ cXSX8XV.3XtXsXiXsXuXxXuXsX5X5X5XuXtX|.yXaXkXaX",
"CXiXNXdX$X0 6 7 i.h j.+Xg @XXXw.r.P. Xd.,.,.,.,.2.2.<.w :.0.8.;.<.i.W b m m m  .T.!.E._ ' =X4XtXuX0XkXiXsX5XsX5X5X5XiXiXtXuXvXDX",
"iXCXcXAX$X0 6 6 u.k.g @Xg +XhX+XL.K.XX&Xd.2.,.,.<.<.<.1.<.%.$.%.8.x.x B m m M [ T.E.m._ ' Q.%X9X0XxXsXxXsXsX8XqX0X3X5X9XuXuXiXaX",
"DXaXCXdX$X0 6 6 :.j.j k.d 3.g.rXaX1X2X8X6X].i.;.f 1.<.<.;.U z $.*.l V x b b m / m.B.~.E.M.F.!.=X5X0XsX5XjXsXsXqX5XuX0XwXsXuXaXBX",
"iXCXiXAX&X0 6 6 y r s s s a 1 XXSXDXDXlX0X0X~.&.1.,.8.8.j.=./ ) z k k k x B b M ..m.B.~.W...M.!.3XwXsXzXsXVXdXsXwXaX8XwXjXjXkXxX",
"DXaXCXdX[.9 7 % & 4 4 2 > , 2 H.SXDXSXSXzXkX:Xb.,.8.6.4.7.i.` Y n x l k v x B m o...m.R.!.~.).'.#X$XqX0XnXsXkXjXwXuXwXsXjXkXmXDX",
"iXCXaXAX[.8 7 6 - 4 , , , > 1 d.SXSXDXSXlXsXwXd.2.6.5.5.7.i.` Y Y M c Q z v x b O.+.{ Z.).3XuXsX$X:X_.sXsXsX0XlXsXsXjXuX0XkXVXaX",
"DXvXNXkX[.8 6 6 - 2 , , > : 1 H.SXSXSXSXlXlXwXd.2.8.4.5.7.=.( Y Y n M ( m.W x n { #.o.Z.^.$XkXaXkX#XO._.mXjXkXkXkXjXkXkXjXkXmXCX",
"iXVXkXAX<X8 6 6 - 2 > > > : 5 XXSXCXDXSX>XZ._.=.2.2.4.5.7.~ E E Y R m m { C.~ Z ' ! X.N.W.:X0XmXkXfXR.8XkXVXxXkXjXsXjXmXvXvXmXvX",
"CXvXNXkX%X9 # 7 - 2 : : : : 5 OXDXCXCXDXF.m ` ~ 1.2.4.4.c./ M R M M m m M o.C.n.! W X.m.~._.0X0X_.sXkXkXBXkXmXkXjXjXkXmXmXmXmXmX",
"cXmXNXNX$X0 # 6 & = = = = = 5 oXNXcXcXVXM.n R T ~ =.*.x.N m M M M M c b M  .+.B.W.v.X.M.@...6X:XV.fXcXVXmXmXmXNXaXkXcXmXVXmXmXmX",
"cXmXmXmXqX%.@ # & * * = * = G 1XdXiXiXiX5XW._ M / ( ) B B m m m m o.B.#.Z [ o.V.Y.+...B.@.+.6XfX9XkXmXmXmXNXmXmXmXVXvXVXmXmXmXmX",
"CXcXmXmXjX].0 $ & * * * - I g.U.oXyX1X2XaXuX-.U Z N R N m m m m / D.B.D.A. . .+.T.` Z.$XQ._.3XkXmXcXmXcXmXmXmXmXmXvXVXkXkXVXkXVX",
"kXmXkXVXkXzX%Xq.J J J J :.9.H L I.iX2X|.iX.X$.%.=.! n R Y m m b  ./.M.C.Z.S.n.+.Z.Y._.kXuX3X4XmXcXNXkXmXkXmXcXmXmXmXxXVXmXkXmXmX",
"DXaXCXvXBXaXkXzX&XJ.u.*.G :.J 9.XXaX5X XeX+X%.f f.#X| b m M n ) Z V.M.C.o./.~...Z.E.:XuXDX0XqXaXCXaXCXvXDXvXVXcXVXmXVXmXmXVXmXVX",
"aXVXkXDXaXBXkXCXlXH.q.p.t 9.q.H.tXvX|. X|.eXs.$.].$X' M [ { ` .._ ) +.m.D.^.^.@.^.^.!.0XiX,X$XDXxXBXxXBXxXVXaXCXkXVXmXVXmXvXVXxX",
"DXaXBXaXVXaXVXxXsX;X-X.Xp.p.p.;XeXiXiX|.|.|.eX5X*XQ.Z [ ).Y.@.+.V.X. ...Y.Q.#X>XfX#XZ.(.lXiXkXkXBXxXBXxXVXxXVXkXVXxXVXvXkXVXxXCX",
"iXBXaXBXxXVXxXZXXXF }.-X Xa.a.5XiXyXeX|.*X5X5X&X&XQ.M | b.&X:XD.M.D.V.O.C.(.>XsXkX7X{ ~.sXDXaXDXxXBXaXBXxXVXxXBXxXVXmXmXVXkXVXaX",
"DXaXBXaXBXxXCXkXtXH.;XP H.}.J.9XuXyXeXeX5X3X3X5X&X>X) c A =.kXtXH I *.~./.F.>XdXNXsX6X0XNXaXqX3XjXxXBXaXDXxXBXxXVXxXVXkXvXmXxXDX",
"iXBXxXBXxXVXxXBXkXAXgXK.}.G.0.0XwXtXyXtX5XH.|.tX=X$XM.n x v.CXDXy., 5 J._.C.S.9XaXNXkXNXdXkX~.{ 7XBXaXBXaXBXxXBXkXVXmXVXVXmXVXaX",
"DXxXBXxXVXxXBXxXNXcXmXjXlX2X-XzX4XU.=X4X3X.X;X=X X&X5Xc.^ Q.DXDXy., , L }.Q.,X6XqX>X0XkX>X_.7X~.0XiXBXxXBXxXBXxXCXxXmXvXvXVXxXVX",
"iXBXaXVXaXCXxXVXcXNXmXmXAXgXU.-XqX3X0X}.}.4XtX|.&X3XsX|.|.kXDXCXL , , F K.U.gXlX8X@.`.kX_._.kXNXiXCXxXVXxXBXxXVXvXVXvXVXVXvXVXxX",
"DXxXVXxXVXvXCXkXNXdXAXmXmXyXP G.H {.0XL P 4X&X*X4XuX0X5XiXiXNXI.4 , , F g.K K.K.G.<X0XkXAXkXNXqX6X0XBXxXBXxXVXxXVXvXCXvXkXVXkXBX",
"xXVXxXVXxXVXxXVXmXmXxXVXkXkXuX{.F H.fXU.XXsXiX*X3X3X9X$X|.5XpX+Xg.w.K P L.L a.e.G.9XU.1XdXAXdX_.o.7XiXVXcXNXcXNXcXNXcXNXmXcXNXkX",
"VXxXVXkXVXkXVXvXVXkXVXvXvXVXkXsX2XsXdXAXjXmXkXsX5XyX9X&X@XeXiXiXvXaXpXXXL.t.g.g.U.}.U.2XAXdX}.<X_.zXmXxXNXcXNXcXNXcXNXcXcXNXmXmX",
"mXmXvXVXmXVXvXVXvXmXmXVXmXmXcXcXmXmXNXNXmXmXNXkXxXiXiX Xt.>.L w.y.g.XXpXXXP.t.e.0.4 J.<X2X-Xi i 5XVXkXVXmXNXcXcXcXNXcXNXmXmXmXmX",
"mXVXkXmXxXVXmXmXmXVXkXVXmXmXmXmXNXcXcXcXmXmXmXmXZXVXlX.Xa : 2 u 2 3 i oXtX1XP.L.G.9.<Xr.H.-XP G 5XmXkXVXcXNXmXCXmXNXcXNXNXmXNXmX",
"VXxXVXxXVXkXVXkXVXmXVXmXkXNXmXmXcXNXcXNXcXNXcXNXxXZXkX3Xt = 4 u 2 > p XX1XrXoXXX;X-X9X-X0XsX4X4XdXcXcXcXCXcXmXcXVXmXmXmXkXmXmXNX",
"xXVXkXVXvXCXxXVXmXmXkXmXmXmXNXmXNXcXNXcXNXcXNXcXBXxXNX3Xt < 4 4 , > L g.P.1XyXgXdX-X9X6X6XqXsXlXiXCXcXCXcXCXcXcXkXmXmXVXmXmXVXkX",
"DXaXVXxXCXxXVXxXVXkXVXmXmXmXkXCXcXNXcXNXcXNXcXNXxXVXxX=Xy < 4 4 , u t.y.g.P.oXuXsXuXsXgX0X8XuX0XNXkXCXiXCXiXCXvXVXmXmXmXmXmXmXVX",
"iXDXaXVXaXVXxXVXvXCXkXmXVXmXmXvXNXcXNXcXNXcXNXcXAXxXAX&Xy < 4 2 1 L w.p w.g.P.XXtXlXsXfX0X0XwX0XsXNXiXCXiXCXiXCXkXVXkXNXmXmXNXaX",
"DXxXBXxXDXxXVXxXmXvXmXmXkXVXvXVXcXNXcXNXcXNXcXNXcXCXhX-Xy < 4 , G t.L L r.t.w.P.g.5XjXsXlXuXqXjXjXiXBXxXDXxXVXaXVXvXmXmXkXVXvXDX",
"iXBXxXBXaXVXxXVXvXVXmXmXVXvXVXxXNXcXNXcXNXcXNXcXNXcXAX9XJ = 5 G G.e.e.e.y.t.L.U.9.;XzXsX9XjXjXjXjXBXxXBXaXVXxXCXxXVXmXVXVXvXVXaX",
"DXaXBXxXBXxXCXaXVXvXmXmXmXmXkXCXcXNXcXNXcXNXcXNXcXNXhXlX}.q.q.U.K.L L r.t.L.I.XX>.{.qX9.t.0XBXiXCXaXBXxXVXxXCXaXVXvXmXmXmXVXxXBX",
"iXBXxXBXaXVXvXCXkXCXvXVXVXvXVXvXNXcXNXcXNXcXNXcXNXcXBXhXBXfXyXXXK.9.t.t.r.i K.1X5XjXjXg.G.lXiXDXaXCXxXBXxXVXvXCXkXCXvXmXmXkXVXaX",
"AXxXBXxXVXxXVXkXVXxXVXvXmXVXvXVXcXNXcXNXcXNXcXNXcXNXcXNXcXNXcXhXXXe.t.g.K.t.XX2XH.{.kXjXZXiXCXaXVXxXBXxXVXxXVXkXVXxXVXkXmXVXvXCX",
"aXVXxXVXxXCXxXVXxXVXvXVXmXkXVXxXNXcXNXcXNXcXNXcXNXcXNXcXNXcXNXcXhX1XI.L.I.oX1XgXr.K.aXVXkXVXaXCXxXVXxXVXaXCXxXVXxXVXvXVXmXkXmXxX",
"CXxXBXxXVXvXVXvXVXkXVXvXmXVXmXVXcXNXcXNXcXNXcXNXcXNXcXNXcXNXcXNXmXmX1XXXXX1XhXhXkXsXVXxXBXxXCXxXVXxXVXxXCXvXVXvXVXkXVXxXvXVXmXVX",
"xXVXkXZXkXVXmXmXmXVXkXmXVXvXmXkXNXcXNXcXNXcXNXcXNXcXNXcXNXhXNXmXmXmXCXpX1XhXhXhXvXVXkXVXkXVXvXVXkXVXkXVXkXmXmXVXvXVXmXmXVXvXVXkX"
};
