/* XPM */
static char *_cace5a96b4f41ebc71c4731b716328b9eOYWFv50avUT8Mk[] = {
/* columns rows colors chars-per-pixel */
"64 64 190 2 ",
"   c #843E00",
".  c #854400",
"X  c #894500",
"o  c #874800",
"O  c #8C4B00",
"+  c #924C00",
"@  c #8F5000",
"#  c #945300",
"$  c #9A5400",
"%  c #965C00",
"&  c #9B5B01",
"*  c #9F5F08",
"=  c #A35C00",
"-  c #A46302",
";  c #AA6602",
":  c #AB6A02",
">  c #AD6B0B",
",  c #B36C04",
"<  c #B26D0D",
"1  c #B77002",
"2  c #BB7401",
"3  c #BF7804",
"4  c #B4720B",
"5  c #BA730C",
"6  c #B6790B",
"7  c #BB7B0E",
"8  c #AE6D13",
"9  c #B26E12",
"0  c #B57315",
"q  c #BA7515",
"w  c #B77A10",
"e  c #BB7B14",
"r  c #B47319",
"t  c #B97519",
"y  c #BD7B1B",
"u  c #BD7C21",
"i  c #C07907",
"p  c #C27E16",
"a  c #C27D1C",
"s  c #C57E22",
"d  c #C87F21",
"f  c #BF8117",
"g  c #BE8126",
"h  c #BE8129",
"j  c #C68216",
"k  c #CA8416",
"l  c #C4821C",
"z  c #CA851D",
"x  c #CD8A1D",
"c  c #D18B1E",
"v  c #C58422",
"b  c #CB8624",
"n  c #C78925",
"m  c #CB8A24",
"M  c #C4842B",
"N  c #CA872A",
"B  c #C6892C",
"V  c #CD8C2B",
"C  c #D28D25",
"Z  c #D08728",
"A  c #D28D2C",
"S  c #D98F2B",
"D  c #CE912D",
"F  c #D49125",
"G  c #DA9425",
"H  c #D79827",
"J  c #D4932C",
"K  c #DB952C",
"L  c #D6992F",
"P  c #DC992D",
"I  c #C78730",
"U  c #CA8A32",
"Y  c #D28F32",
"T  c #CD9130",
"R  c #D59333",
"E  c #DB9533",
"W  c #D79934",
"Q  c #DC9B33",
"!  c #D59339",
"~  c #D9973B",
"^  c #D79839",
"/  c #DC9B3B",
"(  c #E0972C",
")  c #E19B2D",
"_  c #E19733",
"`  c #E29C35",
"'  c #E39D3B",
"]  c #E89F3B",
"[  c #DFA137",
"{  c #DEA039",
"}  c #EAA22D",
"|  c #E5A233",
" . c #EBA535",
".. c #EBA837",
"X. c #E4A23B",
"o. c #EAA43C",
"O. c #EDAA3C",
"+. c #F0A73E",
"@. c #F2AC3C",
"#. c #F5B23F",
"$. c #DE9D42",
"%. c #E29D42",
"&. c #DFA041",
"*. c #E4A242",
"=. c #EBA543",
"-. c #E6A843",
";. c #EDAB44",
":. c #E6A449",
">. c #EAA74B",
",. c #EDAA4B",
"<. c #F2AD44",
"1. c #F8AF43",
"2. c #F0A749",
"3. c #F3AD4B",
"4. c #F8AF4A",
"5. c #EFB146",
"6. c #EDB14C",
"7. c #F5B245",
"8. c #FAB345",
"9. c #FBB847",
"0. c #F7B34B",
"q. c #F5B049",
"w. c #F4B44A",
"e. c #F5B14E",
"r. c #F6B24F",
"t. c #F7B54D",
"y. c #F4B54E",
"u. c #F5B34B",
"i. c #F9B04A",
"p. c #F8B04A",
"a. c #FCB34A",
"s. c #FBB74A",
"d. c #F9B549",
"f. c #FDB748",
"g. c #FDB64A",
"h. c #FEB64A",
"j. c #FAB24E",
"k. c #FBB74C",
"l. c #FDB64C",
"z. c #FAB54B",
"x. c #F7B94C",
"c. c #F6B84D",
"v. c #FBB949",
"b. c #FFBB49",
"n. c #FFB84A",
"m. c #FCB849",
"M. c #F9B94F",
"N. c #FBB84F",
"B. c #FBBB4F",
"V. c #FABA4C",
"C. c #FFB94D",
"Z. c #FFBB4C",
"A. c #FCB84D",
"S. c #FDBE4D",
"D. c #FCB94C",
"F. c #EEAD56",
"G. c #F3AE52",
"H. c #F7B352",
"J. c #F7B650",
"K. c #F7B554",
"L. c #F5B453",
"P. c #F8B552",
"I. c #F8B656",
"U. c #FAB553",
"Y. c #F6B953",
"T. c #FBBB51",
"R. c #F9B852",
"E. c #FABA53",
"W. c #FDB853",
"Q. c #FEBB52",
"!. c #FFBC52",
"~. c #FABB54",
"^. c #FFBA56",
"/. c #FDB955",
"(. c #FFBF55",
"). c #FEBD55",
"_. c #FCBB53",
"`. c #F7B658",
"'. c #FAB558",
"]. c #F4B858",
"[. c #FFBC58",
"{. c #FEBC5B",
"}. c #FFBE60",
"|. c #FFC352",
" X c #FEC155",
".X c #FFC15B",
"XX c #FFC362",
"oX c #FFC864",
"OX c #FFC769",
"+X c #FFC869",
/* pixels */
"8.8.#.8.f y.V.7.w.K ( 8.8.=.z D.n.@.#.9.l E.z.@.q.S ( 8.<.=.C q.f.@.f.n.a J.z.#.4.S G 9.+.<.z z.Z. .9.8.f |.w.<.V.c ) 8.+.;.z E.",
" .#...H - L m P  .; = ) P A q ;. .#...) = m H ` ] , = ( ` K < <.+.#.} P - C H H ] , = ( ` S < 4...8. .P - m J Q ` 1 = ( ] C 0 ;.",
"} 3 | O.: 6 ).=.<.D._ ] e./.y p @., @.O.- 7 z.<.8.l.) o.p./.y e @.1 @.O.- 7 e.<.1.g._ ] 4./.a q @.2 | #.- 6 c.O.<.Z.K O.P.H.a r ",
"#.| ` S.|.x K.e.@.n. .Y o.C ; =.f.G o.l.Z.H >.y.<.@.] _ ' C ; ;.8.G @.Q.S.F :.P.8.@.=.S  .m > =.v.H ..M.).L ;.3.z.<.o.K ` J ; ;.",
"7.Q.q V J.;.R K.O.8.a.5 k | H ;.o.[.0 R Y.X./ /.O.8.p.5 c | F y.;.[.> R E.X./ K.O.f.g., x ) F 5.;./.q R I.X.^ Q.1.8.9., k o.m v.",
"P.K A ~ / >.J I.D.1.1.c <.Z.Q X.Q.W V / { *.W ].D.#.<.x 7.V.Q X./.E V / / X.W ].D.7.8.z w.S.Q X./.K A / ~ -.A /.4.a.#.c 8.z.[ [ ",
"F K n.w.y.y % z ` ' C _ {.G.^ -.X.x |.-.6.v @ l ' E F ` y.K.$.*.| C |.5.,.f @ z ' Q C ` J.L./ *.X.c !.;.;.l @ z Q _ b ] /.>.*.$.",
"p Z.8.c.K.V e Q ' a $ K %.~ t X j v.w.Y.L.D w Q E v $ C =.^ r o z w.w.c.].T e Q / v # J *./ 0 @ p D.w.!.L.n y { ' p $ C %.' 8 # ",
"d ! R v # M E./ q A 8.1.<.X.5.4 < %.R V # g Y.{ q A 8.7.5.X.5.> > %.R B # h ].O.q D 7.7.;.X.5.> < :.V V # M L.*.5 F <.f.O.X.;.6 ",
"' G.>   Y B - J < z 8.f.7.<.V.J R ,.9 o I g > D : l v.7.w.O._.L E ,.> . I B > n : l v.7.z.;._.L S G.9 O M h > A > l 8.z.7.<.E.L ",
"<.Q.<.X.y.y.V XXz.K q =.H.L.>./ ).w.X.X.E.Y.W L.y.Q 5 =.3.].:.$.P.V.;.;.y.6.W E.w.Q 5 ;.G.].>.*.W.p.o.;.y.].W K.e.` < 2.2.{.*./ ",
"P  .- D x./ $.,.q.<.Y X s ^ 8 - P ..: n  XL ~ K.q.O.!   V J 0 - P ..: n |.R ~ F.q.o.!   V T r ; W O.; n  XQ W y.q.=.K   N R 8 * ",
"o.' / y Y.D v }.z.<.' Q m V.`.# o.X.*.y {.l y OXw.w.E X.l ).E.# o.X.' 0  Xn u oXw.8._ ' p ).J.# o.X.' r XXv y oXe.l.K o.a [.y.# ",
"O.e..X- v g O D X.P z Q.X.z n J P.;.[.- v B # V  .K C W.o.l A J e.3.XX- l n # V o.K C j.o.p V V j.;..X- v v # n X.E m D.X.a n D ",
"j P F J # y [.X.K O p.;.oXV o $ z G K P . y {.X.S + 4.<.XXY X $ x K F J . v  XQ K + 4.2.XXY X $ l H | L o w XXX.J + <.3.[.R . % ",
"7.7.#.E.V J w.<.P.V <.z.,.F./ {.;.n.7.w.V W o.4.U.Z @.4.2.,.%.{.O.D.8.w.B W ;.z.I.V 1.1.3.,.%.[.7.8.7.;.D Q ,.<.P.C ;.z.,.,.$.{.",
"8.#.8.p.a H.V.7.3.E ( D.=.,.n y.Q. .v.7.y {.7.7.4.E ( g.=.3.b j.n.O.7.w.a P.v.7.3.E ( n.=.2.b P.z.O.1.8.l E.V.7.z.A P g.;.=.n J.",
" .1. .P = W C P ` , = ( ` R 4 ;.] 8...` = n K P ` , = ( ` Y < 2.O.#.#.Q % D m Q ` , = _ ' R < <. .f.O.P & m C Q ` , = ( X.J > ,.",
") i ` @.: 4 ~.=.p.g._ ] H.E.u y  .2  .@.; 5 P.;.p.a._ ] j.U.a a  .2  .O.: 4 E.=.7.l._ ] j.I.u y @., @.O.- 7 y.2.<.g._ ] y.~.y y ",
"#.} ` D.|.m K.e.1.@.%.E o.m > >.g.G o.P._.H ,.H.<.1.=.E =.b > 2.8.) ` E.|.m I.3.8.@.o.E o.b > ;.f.F o.l.!.H ,.H.7.8.o.E ' V > >.",
"4./.0 V E.;.R K.o.8.a., F ` C P.;./.0 R J.-.^ {.O.f.p., F P D J.4./.y Y y.-.Y {.O.8.a., F ) J z.o.[.0 W ].X.^ I.@.g.4., x | F y.",
"U.! V ^ / >.Y K.P.1.4.c 8.D.Q o./.R Y / / :.R `.D.<.8.z 8.S.Q X.{.S Y / ~ >.U /.W.<.p.z q.z.W X./.Q V / ^ { W J.p.1.4.c 8.D.Q X.",
"C G c.w.6.y % v %._ S ] P.G.%.%.' c |.;.6.n O l ' W C ' L.F.{ *.` F j.3.G.l & a ' E S ` G.K.$.*.X.x Z.;.L.n # z ` E S _ U.G.' %.",
"j !.w.J.L.V e Q _ d $ S %.%.0 O l !.w._.].B f Q ~ b # C *.$.r O l n.z.E.K.V e ` ~ v $ S %.%.0 @ l z.v._.L.U e [ ' d $ S =.~ r + ",
"s ! J U # M ].X.y A 8.8.<.' <.< > %.^ N # u ].-.e A 7.7.;.X.5.> < :.A U # M K.*.q Z 7.8.;.o.;.4 < *.R n # g E.X.q V f.8.+.o.O.6 ",
"/ F.> . U B ; V ; a 8.8.l.<. XW E 2.> . U B > n > l v.7.z.;. XL S G.< # M M > V , b 7.n.<.7.c.W R ,.8 o B M > V > z 8.f.8.<.).K ",
"7.w.2.*.y.6.R {.P.` q 2.3.K.*./ V.z.;.-.y.6.W ].e.Q 0 =.3.`.:.*./.q.X.*.y.].R 3.P.E p =.e.J.>.$.).w.X.X.J.E.^ H.4.] : 2.2.K.>.$.",
"} | ; D Y.Q *.>.4.o.E   V T r - P O.- n  XW ~ G.q.o.E   m U r - K O.: n !.L ^ L.q.4.Z X a ~ 8 - K O.: m |.W ^ L.<.<.A X n R 9 * ",
"O.Q / y E.V B [.7.7.W ' z ).Y.# X.X.X.r  Xn y oXw.v._ ' j ).J.# X.X.*.0  Xv u OXz.8.` ' z E.K.# X. .%.q  Xl y oXw.8.Q o.p  X6.# ",
"<.3.}.- v f @ V =.P C V.;.e D n q.2.oX- v v # A  .P Z j.;.p A A e.;..X- n n # n ' P l /.` z n J z.;.{.- n n # B | G A E.X.z x T ",
"k ( F H O y  XX.A X <.;.XXR @ - m K F J o v  X/ J + 4.<.XXR X % z F P J o e .XX.J O 7.;.oXY X % k H P L X y  X{ J + 7.5..XT . % ",
"1.8.<. Xn R y.w.P.C 7.q.,.>./ ].O.Z.8.v.n W ;.w.P.b 1.1.2.2.%.{.7.n.9.w.D W 5.7.j.V @.n.:.G.$..X@.n.#.8.V W ;.7.I.J o.c.6.-.&..X",
"8.1.p.w.l y.E.4.4.( ) a.<.>.v e.S.O.9.#.l _.7.w.z.G ( g.<.o.v e.z.@.7.8.l E.V.<.4.C ) f.<.2.V j.g...8.f.f J.w.O./.C ) 8.2.2.l l.",
" .8.O.P - J C Q ] ; = ` _ S q ;.| v...P - m m P ` , = ( ` J 5 7. .f. .) & m F P ] , = ( ` S < 1.+.8. .G = F K P ` 1 = ( ] C 0 ;.",
"} i | O.: 5 ).o.4.j._ ] 4.{.y a  .2 | O.; 6 c.;.<.g._ X.e./.y y @., ..O.- e y.<.<.g._ ] 4./.y q @.1 ..O.; 7 y.<.@.D.K 2.p.W.a t ",
"#. .` Q. Xm y.q.4.j.] S =.A - ,.8.G | x. XJ 3.z.7.q. .( ' C : *.f.F o.D.Z.K ,.H.8.<.] _ ] C > :.8.G @.D.S.F :.P.7.@.2.S ` J > 2.",
"4./.q V ].,.R P.<.p.p.3 z P H 5.<./.q R P.*.W /.O.D.f., c | C 7.<.{.9 W ~.{ ~ J.O.f.1.5 x | D c.;./.< R E.X./ P.@.8.l., k ..m x.",
"U.E A ! &.>.D ].Q.<.<.x <.E.Q X.).S J / / :.R z.W.1.8.k 7.Q.P X./.~ V / / *.^ K.l.<.<.c 7.S.P X./.Q V / { X.W ].w.8.<.C 8.v.) / ",
"F K W.q.6.e % b W ' A E {.G.^ -.X.k ).w.;.n # l ` P S ` P.3.%.*.X.x S.;.6.n @ l ' W A ` H.F.&.&.| F  X6.,.g @ n Q Q C | ].,.&.&.",
"j !.y.J.L.V e W ' l $ S *.^ u o z D.q.).L.n l E ` a $ C :.Q r O l l.c.~.].T w Q / v $ m -.$.r @ l z.w.S.L.T 6 Q ' a $ m *.&.0 @ ",
"v ! ^ M # g {.&.e m z.7.<.X.5.4 < %.A N # M `.-.e C 1.g.O.o.;.> < %.R M # h J.X.t J 8.7.<.X.5.> < *.V n @ B L.X.r A <.v.;.X.5.6 ",
"' ,.8 . U V - D , l V.7.x.O.!.J E 3.9 O M M > V > z 8.p.7.7.E.R ! 2.9 o B M > V > l 8.9.7.;.J.L R L.8 @ M h > V > z 8.v.8.;.Y.L ",
"4.V.;.-.6.Y.T .XH.Q 5 ;.,.`.:./ ).z.| O.J.{.E L.e.` < 2.,.{.*.*.).w.X.*.].].^ 6.J.K e *.K.G.>.$.Q.z.X.-.y.Y.^ K.w.Q < 2.,.{.*.&.",
"( | - J J.{ X.>.P.=.E   m R r * E O.: n {.W W ,.e.2.K   b ! 8 - P O.: n  XW ^ G.w.<.Y X s ^ 8 - J O.: n  XL ^ L.w.O.J X n R 8 * ",
"<.' Q y ].D v {.P.z.E ' l [.J.# X.X.X.0 .Xv y oXe.W.K  .a  XH.# X.o.:.r ).n u OXe.7._ _ m P.E.# =. .%.r  Xn u OX<.g._ =.p ).y.# ",
"<.e..X; v v @ D ' K C l.;.a A A I.;..X- v B # n o.Q C W.o.y V A W.,.{.- v V # V  .Q b /. .v V Y P.;.{.= n n # b ' P C W.X.l V V ",
"p ( J J O e .XX.K + 4.<..XA o % z F P F o e .XX.J + <.3..XR . % z K K J . y  XX.E + 4.<.OXN X $ z F Q J o y  X' J + 2.<.{.! . % ",
"8.8.7. Xm D P.y.j.C <.j.2.,.$.[.<.v.w.5.D W ,.y.e.m <.P.;.,./ }.1.l.7.w.V / ;.w.G.Z 1.p.2.G.%.{.<.n.8.7.V W ;.p.U.S 1.1.2.G.%.{.",
"8.1.8.a.a w.V.7.q.J ) f.<.;.N y.z...8.x.l J.c.5.q.K P D.=.3.b j.l. .g.p.a {.8.<.P._ ( D.=.3.b y.z.@.7.7.v K.7.7.P.S ( 8.2.2.V P.",
"} 1. .G - L C P ` , = K ` J 0 ;...9...P & n J Q ` , = ( ` Y 9 <.+.f. .( & m F P ` , = ( _ J > ,...n. .P - m m | _ , = ) ] S < >.",
"} i | @.: 4 ~.=.7.g._ X.e./.y y @., O.O.- e y.<.4.p._ %.j.'.y p +.2 ..@.; 5 E.;.1.a._ ] p.E.y y @.1 O...; e q.3.<.l.` %.4.{.a t ",
"@.| _ Q. Xx K.3.7.@.] _ X.m > -.8.F o.z.|.H ,.P.7.1.=._ =.b > :.8.G X.Q.|.F ,.H.8.@.o.E o.m > >.8.G =.z.!.P >.H.<.8.] _ ' Z < >.",
"8./.0 V I.;.R L.+.8.4.5 c ) m z.;.[.9 ^ ].' ^ '.;.8.j., F ) A y.<.{.0 ! Y.&.^ K.;.8.j., F ) F z.;.[.0 ! I.' ^ I.@.9.p., z | J y.",
"U.E V ~ / >.R P.l.1.4.c 8.D.Q X./.E Z ' / *.~ I.l.1.4.c 8.W.Q *./.K S / { &.D ].l.7.8.z 7.D.W o.{.~ V X./ &.^ K.z.<.p.C p.Z.W X.",
"C G x.w.y.y & n ' _ S ` G.G.%.*.X.c Z.;.3.n # z ' ~ S ` G.'.%.%.[ z _.;.6.n # z ' E C ] 3.G.' *. .x !.6.,.B # l ' R C ' I.F./ *.",
"p !.w.c.L.B w Q E d $ S %.%.t + l V.V._.K.V e Q ~ b $ A %.%.r X f |.5. XY.B f Q ~ b $ C %.%.r O l q.V.~.6.D f L ' a # F :.^ r @ ",
"s ! R M & M ].' 0 S 1.8.1.=.;.4 < %.Y N # s J.*.t S 8.f.=.X.;.< > *.n B @ B ].{ e m 8.#.<.X.;.4 < :.T B # h J.*.r A 7.8.O.O.-.6 ",
"^ G.> . ! B - J < v 8.f.1.<.E.K E ,.< o I u > V > p 8.z.q.w.).W R 6.8 @ h B > D > z f.8.g.O.!.J Y L.8 @ I B > V > l w.8.7.;.M.D ",
"q.!.5.*.L.L.U XX4.E 5 2.2.'.:.*.!.7.X.-.E.].W J.W.` 9 2.,.`.$.$.E.w.X.O.y.Y.W L.w.Q 5 2.3.I.:.:.Q.z.{ -.L.].W L.y.Q < ;.,.{.*.&.",
"P o.- D y.{ $.,.q.<.Y   b ! 8 - P ..: n  XJ ~ H.q.o.S   b ~ r - P ..- m |.W ^ 6.p.o.E   b J r = K O.: m |.W ^ G.z.;.E   n R 8 * ",
"O.' ' y Y.V g {.p.D.E :.l  XL.# X.X.*.q  Xv y oX7.z.P =.a  XK.% o.' X.0  Xn f oXz.8.E X.j |.J.# X.X.*.q  Xn u oXp.g.K =.e ).y.# ",
"<.P.}.- v v O R o.P b E.X.l B D V.;. X; v n # n o.Q C Q.o.e V V z.;.XX= g z # B X.K C l.O.f V V z.=..X- n n # V | ( b W.o.l V D ",
"k _ A J # y  XX.J + <.7.XXT o % z H H L . y  XX.A X ;.<.}.! X & z G ) H o q  XX.J + 4.;..XR o % z F Q H o y  XX.J + 2.1.{.Y . % ",
"8.8.<.V.U R J.w.H.V ;.y.>.F.$.XX;.9.#.x.V { ;.q./.V ;.j.,.G.$.{.1.f.#.7.R / w.5.P.b <.q.,.,.&..X<.n.9.q.R ^ 7.4.U.Z <.4.2.G.$.{."
};
